<svg xmlns="http://www.w3.org/2000/svg" xmlns:xlink="http://www.w3.org/1999/xlink" width="500" zoomAndPan="magnify" viewBox="0 0 375 374.999991" height="500" preserveAspectRatio="xMidYMid meet" version="1.0"><defs><clipPath id="7478521c1b"><path d="M 21.429688 21.429688 L 353.679688 21.429688 L 353.679688 353.679688 L 21.429688 353.679688 Z M 21.429688 21.429688 " clip-rule="nonzero"/></clipPath><clipPath id="f86aae567f"><path d="M 21.429688 21.429688 L 353.679688 21.429688 L 353.679688 353.679688 L 21.429688 353.679688 Z M 21.429688 21.429688 " clip-rule="nonzero"/></clipPath></defs><g clip-path="url(#7478521c1b)"><path fill="#ffffff" d="M 187.496094 21.429688 C 190.210938 21.429688 192.929688 21.496094 195.644531 21.628906 C 198.359375 21.761719 201.066406 21.960938 203.773438 22.226562 C 206.476562 22.496094 209.171875 22.828125 211.863281 23.226562 C 214.550781 23.625 217.226562 24.089844 219.894531 24.621094 C 222.558594 25.148438 225.210938 25.746094 227.847656 26.40625 C 230.480469 27.066406 233.101562 27.789062 235.703125 28.578125 C 238.300781 29.367188 240.882812 30.21875 243.441406 31.136719 C 246 32.050781 248.535156 33.03125 251.046875 34.070312 C 253.558594 35.109375 256.039062 36.210938 258.496094 37.371094 C 260.953125 38.535156 263.382812 39.757812 265.777344 41.039062 C 268.175781 42.320312 270.539062 43.65625 272.871094 45.054688 C 275.203125 46.453125 277.496094 47.90625 279.757812 49.414062 C 282.015625 50.925781 284.238281 52.488281 286.421875 54.109375 C 288.605469 55.726562 290.746094 57.398438 292.847656 59.125 C 294.945312 60.847656 297.003906 62.621094 299.019531 64.449219 C 301.03125 66.273438 303 68.148438 304.921875 70.066406 C 306.84375 71.988281 308.71875 73.957031 310.542969 75.972656 C 312.367188 77.984375 314.140625 80.042969 315.867188 82.144531 C 317.589844 84.246094 319.261719 86.386719 320.878906 88.570312 C 322.5 90.753906 324.0625 92.972656 325.574219 95.234375 C 327.085938 97.492188 328.539062 99.789062 329.933594 102.121094 C 331.332031 104.449219 332.671875 106.816406 333.953125 109.210938 C 335.234375 111.609375 336.457031 114.035156 337.617188 116.492188 C 338.777344 118.949219 339.878906 121.433594 340.921875 123.945312 C 341.960938 126.453125 342.9375 128.988281 343.855469 131.550781 C 344.769531 134.109375 345.621094 136.6875 346.410156 139.289062 C 347.199219 141.890625 347.925781 144.507812 348.585938 147.144531 C 349.246094 149.78125 349.839844 152.429688 350.371094 155.097656 C 350.902344 157.761719 351.363281 160.441406 351.765625 163.128906 C 352.164062 165.816406 352.496094 168.511719 352.761719 171.21875 C 353.027344 173.921875 353.226562 176.632812 353.363281 179.347656 C 353.496094 182.0625 353.5625 184.777344 353.5625 187.496094 C 353.5625 190.210938 353.496094 192.929688 353.363281 195.644531 C 353.226562 198.359375 353.027344 201.066406 352.761719 203.773438 C 352.496094 206.476562 352.164062 209.171875 351.765625 211.863281 C 351.363281 214.550781 350.902344 217.226562 350.371094 219.894531 C 349.839844 222.558594 349.246094 225.210938 348.585938 227.847656 C 347.925781 230.480469 347.199219 233.101562 346.410156 235.703125 C 345.621094 238.300781 344.769531 240.882812 343.855469 243.441406 C 342.9375 246 341.960938 248.535156 340.921875 251.046875 C 339.878906 253.558594 338.777344 256.039062 337.617188 258.496094 C 336.457031 260.953125 335.234375 263.382812 333.953125 265.777344 C 332.671875 268.175781 331.332031 270.539062 329.933594 272.871094 C 328.539062 275.203125 327.085938 277.496094 325.574219 279.757812 C 324.0625 282.015625 322.5 284.238281 320.878906 286.421875 C 319.261719 288.605469 317.589844 290.746094 315.867188 292.847656 C 314.140625 294.945312 312.367188 297.003906 310.542969 299.019531 C 308.71875 301.03125 306.84375 303 304.921875 304.921875 C 303 306.84375 301.03125 308.71875 299.019531 310.542969 C 297.003906 312.367188 294.945312 314.140625 292.847656 315.867188 C 290.746094 317.589844 288.605469 319.261719 286.421875 320.878906 C 284.238281 322.5 282.015625 324.0625 279.757812 325.574219 C 277.496094 327.085938 275.203125 328.539062 272.871094 329.933594 C 270.539062 331.332031 268.175781 332.671875 265.777344 333.953125 C 263.382812 335.234375 260.953125 336.457031 258.496094 337.617188 C 256.039062 338.777344 253.558594 339.878906 251.046875 340.921875 C 248.535156 341.960938 246 342.9375 243.441406 343.855469 C 240.882812 344.769531 238.300781 345.621094 235.703125 346.410156 C 233.101562 347.199219 230.480469 347.925781 227.847656 348.585938 C 225.210938 349.246094 222.558594 349.839844 219.894531 350.371094 C 217.226562 350.902344 214.550781 351.363281 211.863281 351.765625 C 209.171875 352.164062 206.476562 352.496094 203.773438 352.761719 C 201.066406 353.027344 198.359375 353.226562 195.644531 353.359375 C 192.929688 353.496094 190.210938 353.5625 187.496094 353.5625 C 184.777344 353.5625 182.0625 353.496094 179.347656 353.359375 C 176.632812 353.226562 173.921875 353.027344 171.21875 352.761719 C 168.511719 352.496094 165.816406 352.164062 163.128906 351.765625 C 160.441406 351.363281 157.761719 350.902344 155.097656 350.371094 C 152.429688 349.839844 149.78125 349.246094 147.144531 348.585938 C 144.507812 347.925781 141.890625 347.199219 139.289062 346.410156 C 136.6875 345.621094 134.109375 344.769531 131.550781 343.855469 C 128.988281 342.9375 126.453125 341.960938 123.945312 340.921875 C 121.433594 339.878906 118.949219 338.777344 116.492188 337.617188 C 114.035156 336.457031 111.609375 335.234375 109.210938 333.953125 C 106.816406 332.671875 104.449219 331.332031 102.121094 329.933594 C 99.789062 328.539062 97.492188 327.085938 95.234375 325.574219 C 92.972656 324.0625 90.753906 322.5 88.570312 320.878906 C 86.386719 319.261719 84.246094 317.589844 82.144531 315.867188 C 80.042969 314.140625 77.984375 312.367188 75.972656 310.542969 C 73.957031 308.71875 71.988281 306.84375 70.066406 304.921875 C 68.148438 303 66.273438 301.03125 64.449219 299.019531 C 62.621094 297.003906 60.847656 294.945312 59.125 292.847656 C 57.398438 290.746094 55.726562 288.605469 54.109375 286.421875 C 52.488281 284.238281 50.925781 282.015625 49.414062 279.757812 C 47.90625 277.496094 46.453125 275.203125 45.054688 272.871094 C 43.65625 270.539062 42.320312 268.175781 41.039062 265.777344 C 39.757812 263.382812 38.535156 260.953125 37.371094 258.496094 C 36.210938 256.039062 35.109375 253.558594 34.070312 251.046875 C 33.03125 248.535156 32.050781 246 31.136719 243.441406 C 30.21875 240.882812 29.367188 238.300781 28.578125 235.703125 C 27.789062 233.101562 27.066406 230.480469 26.40625 227.847656 C 25.746094 225.210938 25.148438 222.558594 24.621094 219.894531 C 24.089844 217.226562 23.625 214.550781 23.226562 211.863281 C 22.828125 209.171875 22.496094 206.476562 22.226562 203.773438 C 21.960938 201.066406 21.761719 198.359375 21.628906 195.644531 C 21.496094 192.929688 21.429688 190.210938 21.429688 187.496094 C 21.429688 184.777344 21.496094 182.0625 21.628906 179.347656 C 21.761719 176.632812 21.960938 173.921875 22.226562 171.21875 C 22.496094 168.511719 22.828125 165.816406 23.226562 163.128906 C 23.625 160.441406 24.089844 157.761719 24.621094 155.097656 C 25.148438 152.429688 25.746094 149.78125 26.40625 147.144531 C 27.066406 144.507812 27.789062 141.890625 28.578125 139.289062 C 29.367188 136.6875 30.21875 134.109375 31.136719 131.550781 C 32.050781 128.988281 33.03125 126.453125 34.070312 123.945312 C 35.109375 121.433594 36.210938 118.949219 37.371094 116.492188 C 38.535156 114.035156 39.757812 111.609375 41.039062 109.210938 C 42.320312 106.816406 43.65625 104.449219 45.054688 102.121094 C 46.453125 99.789062 47.90625 97.492188 49.414062 95.234375 C 50.925781 92.972656 52.488281 90.753906 54.109375 88.570312 C 55.726562 86.386719 57.398438 84.246094 59.125 82.144531 C 60.847656 80.042969 62.621094 77.984375 64.449219 75.972656 C 66.273438 73.957031 68.148438 71.988281 70.066406 70.066406 C 71.988281 68.148438 73.957031 66.273438 75.972656 64.449219 C 77.984375 62.621094 80.042969 60.847656 82.144531 59.125 C 84.246094 57.398438 86.386719 55.726562 88.570312 54.109375 C 90.753906 52.488281 92.972656 50.925781 95.234375 49.414062 C 97.492188 47.90625 99.789062 46.453125 102.121094 45.054688 C 104.449219 43.65625 106.816406 42.320312 109.210938 41.039062 C 111.609375 39.757812 114.035156 38.535156 116.492188 37.371094 C 118.949219 36.210938 121.433594 35.109375 123.945312 34.070312 C 126.453125 33.03125 128.988281 32.050781 131.550781 31.136719 C 134.109375 30.21875 136.6875 29.367188 139.289062 28.578125 C 141.890625 27.789062 144.507812 27.066406 147.144531 26.40625 C 149.78125 25.746094 152.429688 25.148438 155.097656 24.621094 C 157.761719 24.089844 160.441406 23.625 163.128906 23.226562 C 165.816406 22.828125 168.511719 22.496094 171.21875 22.226562 C 173.921875 21.960938 176.632812 21.761719 179.347656 21.628906 C 182.0625 21.496094 184.777344 21.429688 187.496094 21.429688 Z M 187.496094 21.429688 " fill-opacity="0.05" fill-rule="nonzero"/></g><path fill="#7ed957" d="M 158.207031 116.882812 C 165.78125 116.53125 168.199219 116.457031 187.496094 116.457031 C 206.792969 116.457031 209.207031 116.539062 216.777344 116.882812 C 224.34375 117.222656 229.511719 118.433594 234.03125 120.183594 C 238.765625 121.96875 243.0625 124.765625 246.613281 128.382812 C 250.230469 131.929688 253.019531 136.21875 254.800781 140.957031 C 256.558594 145.476562 257.757812 150.644531 258.109375 158.199219 C 258.457031 165.789062 258.535156 168.203125 258.535156 187.496094 C 258.535156 206.792969 258.449219 209.207031 258.109375 216.78125 C 257.765625 224.339844 256.558594 229.503906 254.800781 234.027344 C 253.019531 238.765625 250.226562 243.0625 246.613281 246.613281 C 243.0625 250.230469 238.765625 253.019531 234.03125 254.800781 C 229.511719 256.558594 224.34375 257.761719 216.789062 258.109375 C 209.207031 258.457031 206.792969 258.535156 187.496094 258.535156 C 168.199219 258.535156 165.78125 258.449219 158.207031 258.109375 C 150.652344 257.765625 145.484375 256.558594 140.964844 254.800781 C 136.222656 253.019531 131.929688 250.222656 128.378906 246.613281 C 124.761719 243.066406 121.964844 238.773438 120.179688 234.03125 C 118.433594 229.511719 117.230469 224.34375 116.882812 216.789062 C 116.53125 209.199219 116.457031 206.785156 116.457031 187.496094 C 116.457031 168.199219 116.539062 165.78125 116.882812 158.214844 C 117.222656 150.644531 118.433594 145.476562 120.179688 140.957031 C 121.96875 136.21875 124.769531 131.925781 128.382812 128.378906 C 131.929688 124.765625 136.21875 121.96875 140.957031 120.183594 C 145.476562 118.433594 150.652344 117.230469 158.207031 116.882812 Z M 216.203125 129.667969 C 208.710938 129.328125 206.460938 129.253906 187.496094 129.253906 C 168.527344 129.253906 166.28125 129.328125 158.789062 129.667969 C 151.859375 129.984375 148.101562 131.140625 145.59375 132.117188 C 142.28125 133.410156 139.910156 134.9375 137.425781 137.425781 C 135.070312 139.71875 133.253906 142.507812 132.117188 145.59375 C 131.140625 148.101562 129.984375 151.859375 129.667969 158.789062 C 129.328125 166.28125 129.253906 168.527344 129.253906 187.496094 C 129.253906 206.460938 129.328125 208.710938 129.667969 216.203125 C 129.984375 223.132812 131.140625 226.890625 132.117188 229.394531 C 133.253906 232.476562 135.066406 235.273438 137.425781 237.566406 C 139.71875 239.921875 142.515625 241.738281 145.59375 242.875 C 148.101562 243.847656 151.859375 245.003906 158.789062 245.320312 C 166.28125 245.664062 168.519531 245.734375 187.496094 245.734375 C 206.46875 245.734375 208.710938 245.664062 216.203125 245.320312 C 223.132812 245.003906 226.890625 243.847656 229.394531 242.875 C 232.707031 241.582031 235.078125 240.050781 237.566406 237.566406 C 239.921875 235.273438 241.738281 232.476562 242.875 229.394531 C 243.847656 226.890625 245.003906 223.132812 245.320312 216.203125 C 245.664062 208.710938 245.734375 206.460938 245.734375 187.496094 C 245.734375 168.527344 245.664062 166.28125 245.320312 158.789062 C 245.003906 151.859375 243.847656 148.101562 242.875 145.59375 C 241.582031 142.28125 240.050781 139.910156 237.566406 137.425781 C 235.273438 135.066406 232.480469 133.253906 229.394531 132.117188 C 226.890625 131.140625 223.132812 129.984375 216.203125 129.667969 Z M 178.421875 209.394531 C 183.488281 211.503906 189.132812 211.789062 194.386719 210.199219 C 199.640625 208.613281 204.179688 205.246094 207.230469 200.683594 C 210.277344 196.121094 211.648438 190.640625 211.105469 185.175781 C 210.5625 179.714844 208.140625 174.609375 204.253906 170.734375 C 201.777344 168.257812 198.777344 166.363281 195.480469 165.183594 C 192.179688 164.003906 188.660156 163.570312 185.171875 163.914062 C 181.6875 164.257812 178.320312 165.371094 175.3125 167.171875 C 172.308594 168.972656 169.738281 171.417969 167.792969 174.332031 C 165.847656 177.246094 164.570312 180.554688 164.054688 184.019531 C 163.539062 187.484375 163.800781 191.023438 164.816406 194.375 C 165.832031 197.730469 167.582031 200.816406 169.933594 203.414062 C 172.285156 206.007812 175.183594 208.050781 178.421875 209.394531 Z M 161.675781 161.675781 C 165.066406 158.285156 169.089844 155.59375 173.523438 153.761719 C 177.953125 151.925781 182.699219 150.980469 187.496094 150.980469 C 192.289062 150.980469 197.039062 151.925781 201.46875 153.761719 C 205.898438 155.59375 209.925781 158.285156 213.3125 161.675781 C 216.707031 165.066406 219.394531 169.089844 221.230469 173.523438 C 223.066406 177.953125 224.007812 182.699219 224.007812 187.496094 C 224.007812 192.289062 223.066406 197.039062 221.230469 201.46875 C 219.394531 205.898438 216.707031 209.925781 213.3125 213.316406 C 206.46875 220.164062 197.179688 224.007812 187.496094 224.007812 C 177.808594 224.007812 168.523438 220.164062 161.675781 213.316406 C 154.828125 206.46875 150.980469 197.179688 150.980469 187.496094 C 150.980469 177.8125 154.828125 168.523438 161.675781 161.675781 Z M 232.109375 156.417969 C 232.949219 155.625 233.621094 154.671875 234.085938 153.617188 C 234.550781 152.558594 234.800781 151.417969 234.816406 150.261719 C 234.832031 149.109375 234.617188 147.960938 234.183594 146.890625 C 233.75 145.820312 233.105469 144.847656 232.289062 144.03125 C 231.472656 143.214844 230.5 142.570312 229.429688 142.136719 C 228.359375 141.703125 227.210938 141.488281 226.058594 141.503906 C 224.902344 141.519531 223.761719 141.769531 222.703125 142.234375 C 221.648438 142.699219 220.695312 143.371094 219.902344 144.210938 C 218.359375 145.847656 217.515625 148.015625 217.550781 150.261719 C 217.582031 152.507812 218.488281 154.65625 220.078125 156.242188 C 221.664062 157.832031 223.8125 158.738281 226.058594 158.769531 C 228.304688 158.804688 230.472656 157.960938 232.109375 156.417969 Z M 232.109375 156.417969 " fill-opacity="1" fill-rule="evenodd"/><g clip-path="url(#f86aae567f)"><path stroke-linecap="butt" transform="matrix(5.535547, 0, 0, 5.535547, 21.428574, 21.42857)" fill="none" stroke-linejoin="miter" d="M 30.000203 0.499814 C 30.482879 0.499814 30.965554 0.51181 31.447525 0.535803 C 31.929495 0.55909 32.41076 0.595079 32.891318 0.642358 C 33.371877 0.689638 33.851025 0.748208 34.328761 0.819481 C 34.805792 0.890047 35.281411 0.97261 35.754913 1.06717 C 36.228415 1.161023 36.699801 1.266873 37.167658 1.384014 C 37.63622 1.501155 38.101254 1.630292 38.563466 1.770014 C 39.025678 1.910441 39.483655 2.061454 39.938104 2.224463 C 40.392554 2.386766 40.842769 2.561066 41.289456 2.745245 C 41.735437 2.930129 42.176479 3.125599 42.612581 3.332359 C 43.049388 3.538414 43.48055 3.755759 43.906067 3.982984 C 44.33229 4.210914 44.752162 4.448724 45.165682 4.697118 C 45.579908 4.945513 45.987784 5.203081 46.389308 5.47194 C 46.790832 5.740094 47.1853 6.018126 47.573416 6.305332 C 47.960827 6.593244 48.341182 6.889624 48.714479 7.195884 C 49.087777 7.502143 49.453312 7.817576 49.811085 8.142182 C 50.168858 8.466083 50.518163 8.799158 50.859705 9.140701 C 51.201248 9.481538 51.533617 9.831548 51.858224 10.189321 C 52.182125 10.546388 52.497558 10.911924 52.803817 11.285221 C 53.110076 11.658519 53.407162 12.038873 53.694368 12.42699 C 53.98228 12.814401 54.260313 13.209574 54.528466 13.610392 C 54.796619 14.011917 55.054893 14.419792 55.303288 14.834018 C 55.550977 15.248244 55.788786 15.668116 56.016717 16.093633 C 56.243941 16.519856 56.461286 16.951018 56.667341 17.38712 C 56.874101 17.823222 57.069571 18.264969 57.254456 18.71095 C 57.43934 19.156931 57.612934 19.607147 57.775238 20.061596 C 57.938247 20.516045 58.089259 20.974728 58.229687 21.43694 C 58.370114 21.898446 58.498546 22.36348 58.615686 22.832043 C 58.733533 23.300605 58.838677 23.771285 58.933236 24.244787 C 59.02709 24.718289 59.109653 25.193909 59.180925 25.671645 C 59.251492 26.148675 59.310768 26.627823 59.358048 27.108382 C 59.405327 27.588941 59.440611 28.070205 59.464603 28.552176 C 59.48789 29.034852 59.499887 29.517528 59.499887 30.000203 C 59.499887 30.482879 59.48789 30.965555 59.464603 31.447526 C 59.440611 31.929496 59.405327 32.41076 59.358048 32.891319 C 59.310768 33.371878 59.251492 33.851026 59.180925 34.328762 C 59.109653 34.805793 59.02709 35.281412 58.933236 35.754914 C 58.838677 36.228416 58.733533 36.699802 58.615686 37.167658 C 58.498546 37.636221 58.370114 38.101255 58.229687 38.563467 C 58.089259 39.025678 57.938247 39.483656 57.775238 39.938105 C 57.612934 40.392555 57.43934 40.84277 57.254456 41.289457 C 57.069571 41.735438 56.874101 42.17648 56.667341 42.612581 C 56.461286 43.049389 56.243941 43.480551 56.016717 43.906068 C 55.788786 44.332291 55.550977 44.752162 55.303288 45.165683 C 55.054893 45.579909 54.796619 45.987785 54.528466 46.389309 C 54.260313 46.790833 53.98228 47.185301 53.694368 47.573417 C 53.407162 47.960828 53.110076 48.341182 52.803817 48.71448 C 52.497558 49.087778 52.182125 49.453313 51.858224 49.811086 C 51.533617 50.168859 51.201248 50.518164 50.859705 50.859706 C 50.518163 51.201249 50.168858 51.533618 49.811085 51.858224 C 49.453312 52.182125 49.087777 52.497558 48.714479 52.803818 C 48.341182 53.110077 47.960827 53.407162 47.573416 53.694369 C 47.1853 53.982281 46.790832 54.260313 46.389308 54.528467 C 45.987784 54.79662 45.579908 55.054894 45.165682 55.303288 C 44.752162 55.550977 44.33229 55.788787 43.906067 56.016717 C 43.48055 56.243942 43.049388 56.461287 42.612581 56.667342 C 42.176479 56.874102 41.735437 57.069572 41.289456 57.254456 C 40.842769 57.439341 40.392554 57.612935 39.938104 57.775238 C 39.483655 57.938247 39.025678 58.08926 38.563466 58.229688 C 38.101254 58.370115 37.63622 58.498547 37.167658 58.615687 C 36.699801 58.733534 36.228415 58.838678 35.754913 58.933237 C 35.281411 59.027091 34.805792 59.109654 34.328761 59.180926 C 33.851025 59.251493 33.371877 59.310769 32.891318 59.358048 C 32.41076 59.405328 31.929495 59.440611 31.447525 59.464604 C 30.965554 59.487891 30.482879 59.499887 30.000203 59.499887 C 29.517527 59.499887 29.034851 59.487891 28.552175 59.464604 C 28.070205 59.440611 27.58894 59.405328 27.108381 59.358048 C 26.627822 59.310769 26.148675 59.251493 25.671644 59.180926 C 25.193908 59.109654 24.718289 59.027091 24.244786 58.933237 C 23.771284 58.838678 23.300605 58.733534 22.832042 58.615687 C 22.363479 58.498547 21.898445 58.370115 21.436939 58.229688 C 20.974728 58.08926 20.516044 57.938247 20.061595 57.775238 C 19.607146 57.612935 19.156931 57.439341 18.710949 57.254456 C 18.264968 57.069572 17.823221 56.874102 17.387119 56.667342 C 16.951017 56.461287 16.519855 56.243942 16.093632 56.016717 C 15.668115 55.788787 15.248244 55.550977 14.834017 55.303288 C 14.419791 55.054894 14.011916 54.79662 13.610392 54.528467 C 13.209573 54.260313 12.8144 53.982281 12.426989 53.694369 C 12.038872 53.407162 11.658518 53.110077 11.28522 52.803818 C 10.911923 52.497558 10.546388 52.182125 10.18932 51.858224 C 9.831547 51.533618 9.481537 51.201249 9.1407 50.859706 C 8.799157 50.518164 8.466083 50.168859 8.142182 49.811086 C 7.817575 49.453313 7.502142 49.087778 7.195883 48.71448 C 6.889624 48.341182 6.593244 47.960828 6.305332 47.573417 C 6.018125 47.185301 5.740093 46.790833 5.471939 46.389309 C 5.20308 45.987785 4.945512 45.579909 4.697118 45.165683 C 4.448723 44.752162 4.210913 44.332291 3.982983 43.906068 C 3.755758 43.480551 3.538413 43.049389 3.332359 42.612581 C 3.125598 42.17648 2.930129 41.735438 2.745244 41.289457 C 2.561065 40.84277 2.386765 40.392555 2.224462 39.938105 C 2.061453 39.483656 1.91044 39.025678 1.770013 38.563467 C 1.630291 38.101255 1.501154 37.636221 1.384013 37.167658 C 1.266873 36.699802 1.161023 36.228416 1.067169 35.754914 C 0.97261 35.281412 0.890047 34.805793 0.81948 34.328762 C 0.748208 33.851026 0.689637 33.371878 0.642358 32.891319 C 0.595078 32.41076 0.559089 31.929496 0.535802 31.447526 C 0.511809 30.965555 0.499813 30.482879 0.499813 30.000203 C 0.499813 29.517528 0.511809 29.034852 0.535802 28.552176 C 0.559089 28.070205 0.595078 27.588941 0.642358 27.108382 C 0.689637 26.627823 0.748208 26.148675 0.81948 25.671645 C 0.890047 25.193909 0.97261 24.718289 1.067169 24.244787 C 1.161023 23.771285 1.266873 23.300605 1.384013 22.832043 C 1.501154 22.36348 1.630291 21.898446 1.770013 21.43694 C 1.91044 20.974728 2.061453 20.516045 2.224462 20.061596 C 2.386765 19.607147 2.561065 19.156931 2.745244 18.71095 C 2.930129 18.264969 3.125598 17.823222 3.332359 17.38712 C 3.538413 16.951018 3.755758 16.519856 3.982983 16.093633 C 4.210913 15.668116 4.448723 15.248244 4.697118 14.834018 C 4.945512 14.419792 5.20308 14.011917 5.471939 13.610392 C 5.740093 13.209574 6.018125 12.814401 6.305332 12.42699 C 6.593244 12.038873 6.889624 11.658519 7.195883 11.285221 C 7.502142 10.911924 7.817575 10.546388 8.142182 10.189321 C 8.466083 9.831548 8.799157 9.481538 9.1407 9.140701 C 9.481537 8.799158 9.831547 8.466083 10.18932 8.142182 C 10.546388 7.817576 10.911923 7.502143 11.28522 7.195884 C 11.658518 6.889624 12.038872 6.593244 12.426989 6.305332 C 12.8144 6.018126 13.209573 5.740094 13.610392 5.47194 C 14.011916 5.203081 14.419791 4.945513 14.834017 4.697118 C 15.248244 4.448724 15.668115 4.210914 16.093632 3.982984 C 16.519855 3.755759 16.951017 3.538414 17.387119 3.332359 C 17.823221 3.125599 18.264968 2.930129 18.710949 2.745245 C 19.156931 2.561066 19.607146 2.386766 20.061595 2.224463 C 20.516044 2.061454 20.974728 1.910441 21.436939 1.770014 C 21.898445 1.630292 22.363479 1.501155 22.832042 1.384014 C 23.300605 1.266873 23.771284 1.161023 24.244786 1.06717 C 24.718289 0.97261 25.193908 0.890047 25.671644 0.819481 C 26.148675 0.748208 26.627822 0.689638 27.108381 0.642358 C 27.58894 0.595079 28.070205 0.55909 28.552175 0.535803 C 29.034851 0.51181 29.517527 0.499814 30.000203 0.499814 Z M 30.000203 0.499814 " stroke="#000000" stroke-width="1" stroke-opacity="0.1" stroke-miterlimit="4"/></g></svg>